<svg version="1.2" baseProfile="tiny-ps" xmlns="http://www.w3.org/2000/svg" viewBox="0 0 747 212" width="747" height="212">
	<title>CNN Brasil - Saude-svg</title>
	<style>
		tspan { white-space:pre }
		.shp0 { fill: #cc0000 } 
		.shp1 { fill: #ffffff } 
		.shp2 { fill: #000000 } 
		.shp3 { fill: #3cb54b } 
	</style>
	<g id="Layer">
		<path id="Layer" class="shp0" d="M-309 -7L-25.8 -7L-25.8 276.2L-309 276.2L-309 -7Z" />
		<g id="Layer">
			<g id="Layer">
				<path id="Layer" class="shp1" d="M-248.4 111.8C-248.4 99.9 -238.7 90.2 -226.8 90.2L-210.4 90.2L-210.4 78.1L-226.9 78.1C-245.5 78.1 -260.7 93.3 -260.7 111.9C-260.7 130.5 -245.5 145.7 -226.9 145.7L-195.1 145.7C-193.3 145.7 -191.9 143.9 -191.9 142.5L-191.9 79.8C-191.9 76.4 -189.7 73.4 -186.5 72.6C-183.7 71.8 -179.9 72.6 -177.3 77C-177.2 77.2 -169.4 90.7 -157.5 111.2C-148.2 127.3 -138.5 144 -138.3 144.3C-137.3 146 -135.9 146.8 -134.6 146.4C-133.8 146.2 -132.8 145.4 -132.8 143.9L-132.8 79.9C-132.8 76.4 -130.6 73.5 -127.4 72.7C-124.7 72 -120.8 72.7 -118.3 77.1C-118.2 77.3 -111.3 89.2 -99.9 108.8C-89.9 126.1 -79.5 144 -79.3 144.4C-78.3 146.1 -76.9 146.9 -75.6 146.5C-74.8 146.3 -73.8 145.5 -73.8 144L-73.8 60.9L-86.1 60.9L-86.1 110.2C-86.1 110.2 -106.6 74.9 -107.5 73.4C-120.5 51.3 -145 60.5 -145 79.5L-145 110.3C-145 110.3 -165.5 75 -166.4 73.5C-179.4 51.4 -203.9 60.6 -203.9 79.6L-203.9 130C-203.9 131.8 -205.3 133.4 -207.3 133.4L-226.8 133.4C-238.7 133.4 -248.4 123.8 -248.4 111.8Z" />
				<path id="Layer" class="shp1" d="M-69.1 60.9L-69.1 143.8C-69.1 147.2 -71.3 150.2 -74.5 151C-75.1 151.2 -75.7 151.3 -76.4 151.3C-78.8 151.3 -81.7 150.1 -83.7 146.7C-83.8 146.5 -91.9 132.5 -104.3 111.1C-113.2 95.7 -122.5 79.8 -122.7 79.5C-123.7 77.8 -125.1 77 -126.3 77.3C-127.1 77.5 -128.1 78.3 -128.1 79.8L-128.1 143.8C-128.1 147.2 -130.3 150.2 -133.5 151C-136.3 151.8 -140.1 151 -142.7 146.6C-142.8 146.4 -150.4 133.4 -161.9 113.5C-171.5 96.9 -181.5 79.7 -181.7 79.4C-182.7 77.7 -184.1 76.9 -185.4 77.2C-186.2 77.4 -187.2 78.2 -187.2 79.7L-187.2 142.3C-187.2 146.6 -191 150.4 -195.3 150.4L-226.9 150.4C-248.2 150.4 -265.6 133 -265.6 111.7C-265.6 90.4 -248.3 73 -226.9 73L-210.4 73L-210.4 60.9L-226.9 60.9C-255 60.9 -277.8 83.7 -277.8 111.8C-277.8 139.9 -255 162.7 -226.9 162.7L-194.8 162.7C-182.6 162.7 -174.8 155.6 -174.8 142.4L-174.8 113.4C-174.8 113.4 -154.3 148.7 -153.4 150.3C-140.4 172.4 -115.9 163.2 -115.9 144.2L-115.9 113.4C-115.9 113.4 -95.4 148.7 -94.5 150.3C-81.5 172.4 -57 163.2 -57 144.2L-57 60.9L-69.1 60.9Z" />
			</g>
			<g id="Layer">
				<path id="Layer" fill-rule="evenodd" class="shp1" d="M-219.7 179C-218 180.3 -217.2 182.3 -217.2 184.8C-217.2 186.3 -217.6 187.7 -218.3 188.8C-219 189.9 -220 190.8 -221.4 191.5C-217.7 192.7 -215.9 195.2 -215.9 199C-215.9 200.9 -216.4 202.6 -217.3 203.9C-218.3 205.3 -219.6 206.3 -221.2 207C-222.8 207.7 -224.7 208.1 -226.8 208.1L-241.5 208.1L-241.5 177L-227.2 177C-223.9 177 -221.4 177.6 -219.7 179ZM-234.7 189.3L-228 189.3C-226.7 189.3 -225.7 189 -224.9 188.4C-224.2 187.8 -223.8 186.9 -223.8 185.8C-223.8 184.7 -224.1 183.8 -224.9 183.2C-225.6 182.6 -226.6 182.3 -228 182.3L-234.7 182.3L-234.7 189.3ZM-234.7 202.7L-227 202.7C-225.5 202.7 -224.4 202.3 -223.6 201.6C-222.8 200.9 -222.5 199.9 -222.5 198.6C-222.5 197.3 -222.9 196.3 -223.6 195.6C-224.4 194.9 -225.5 194.5 -227 194.5L-234.7 194.6L-234.7 202.7Z" />
				<path id="Layer" fill-rule="evenodd" class="shp1" d="M-184.3 206.1C-184.2 206.8 -184 207.4 -183.7 208L-190.6 208C-190.9 207.2 -191.2 205.8 -191.4 204L-191.9 200C-192.1 198.6 -192.5 197.6 -193.2 197.1C-193.9 196.5 -195 196.2 -196.5 196.2L-203.3 196.2L-203.3 208L-210.1 208L-210.1 177L-195.8 177C-192.1 177 -189.3 177.8 -187.5 179.3C-185.7 180.8 -184.8 183 -184.8 185.8C-184.8 187.6 -185.2 189.2 -186 190.5C-186.8 191.8 -188 192.8 -189.5 193.5C-188.1 194 -187.1 194.7 -186.4 195.6C-185.7 196.6 -185.3 197.8 -185.1 199.4L-184.6 203.2C-184.6 204.4 -184.4 205.4 -184.3 206.1ZM-191.8 186.6C-191.8 183.7 -193.5 182.3 -196.9 182.3L-203.3 182.3L-203.3 190.9L-196.9 190.9C-193.4 190.9 -191.8 189.5 -191.8 186.6Z" />
				<path id="Layer" fill-rule="evenodd" class="shp1" d="M-158.4 201.1L-170 201.1L-172.2 208.1L-179.5 208.1L-169.2 177L-159.3 177L-148.8 208.1L-156.2 208.1L-158.4 201.1ZM-164.4 181.9L-168.5 195.8L-159.8 195.8L-164.1 181.9L-164.4 181.9Z" />
				<path id="Layer" class="shp1" d="M-127.2 177.2C-125.4 177.9 -124 179 -123 180.4C-122 181.8 -121.4 183.4 -121.4 185.3L-128.3 185.3C-128.4 184.1 -129 183.2 -129.9 182.6C-130.8 182 -132 181.7 -133.7 181.7C-135.3 181.7 -136.6 182 -137.5 182.7C-138.4 183.4 -138.9 184.3 -138.9 185.3C-138.9 186.2 -138.6 186.9 -138.1 187.4C-137.6 187.9 -136.9 188.3 -136 188.5L-128.1 190.2C-123 191.3 -120.4 194.2 -120.4 198.9C-120.4 200.9 -120.9 202.7 -121.9 204.1C-122.9 205.5 -124.3 206.7 -126.2 207.5C-128.1 208.3 -130.2 208.7 -132.7 208.7C-136.7 208.7 -139.9 207.8 -142.3 206.1C-144.7 204.4 -145.9 202 -145.9 198.9L-145.9 198.5L-139 198.5L-139 198.8C-139 200.1 -138.5 201.2 -137.4 202C-136.4 202.8 -134.8 203.2 -132.8 203.2C-130.9 203.2 -129.5 202.8 -128.5 202.1C-127.6 201.4 -127.1 200.5 -127.1 199.3C-127.1 198.3 -127.4 197.5 -128.1 196.9C-128.7 196.3 -129.8 195.8 -131.4 195.5L-138.1 194.1C-143.1 193 -145.6 190.2 -145.6 185.6C-145.6 183.6 -145.1 181.8 -144 180.4C-142.9 179 -141.5 177.9 -139.6 177.1C-137.7 176.3 -135.7 176 -133.3 176C-131 176.1 -129 176.5 -127.2 177.2Z" />
				<path id="Layer" class="shp1" d="M-107 208.1L-114 208.1L-114 177L-107.1 177L-107.1 208.1L-107 208.1Z" />
				<path id="Layer" class="shp1" d="M-92.1 202.4L-77.5 202.4L-77.5 208.1L-99 208.1L-99 177L-92.1 177L-92.1 202.4L-92.1 202.4Z" />
			</g>
		</g>
	</g>
	<g id="Layer">
		<path id="Layer" class="shp2" d="M116.8 147.7C119.2 152.1 120.4 157.8 120.4 164.6L120.4 167.5C120.4 168.5 120.4 169.5 120.3 170.4C120 173.3 119.3 176.2 118 179.2C116.7 182.2 115 185.1 112.8 187.8C107.3 194.8 100.3 200.2 91.8 203.7C83.3 207.2 73.3 209 61.6 209C49.7 209 38.8 206.4 28.8 200.8C23.9 198.1 19.5 194.8 15.4 190.9C11.3 187 8.1 182.7 5.5 178L5.6 178C4.5 176.3 3.9 174.4 3.9 172.5C3.9 171.9 3.9 171.4 3.9 170.9C3.9 170.5 4 169.9 4.3 169.2C4.7 167.9 5.3 166.8 6 165.8C6.7 164.8 7.9 163.9 9.3 163.2L9.2 163.3C10.9 162.2 12.7 161.6 14.4 161.6C15.7 161.6 16.8 161.9 17.9 162.3L17.9 162.2C19.2 162.6 20.3 163.3 21.4 164.2C22.5 165.1 23.3 166.1 24 167.2C25.9 170.2 28 173 30.5 175.5C32.9 178.1 35.8 180.2 39.1 182.1C42.6 184 46.1 185.4 49.7 186.4C53.3 187.4 57.2 187.8 61.2 187.8C69 187.8 75.7 186.7 81.5 184.4C87.3 182.1 91.8 178.9 95.1 174.9C97 172.5 98 170.5 98.3 168.9L98.3 168C98.4 167.3 98.6 166.6 98.6 165.8C98.6 165 98.6 164.5 98.6 164.1C98.6 162.8 98.6 161.7 98.5 160.7C98.4 159.7 98.1 158.8 97.6 158.1C96.3 155.9 94 153.4 90.4 150.9C87.8 149 83.9 147.9 79.2 146.9C74.5 145.9 68.9 145.5 62.2 145.5C53.2 145.5 45.2 144.6 38.5 142.9C31.8 141.2 26.3 138.7 22 135.6C18.7 133.2 15.8 130.6 13.4 128C11 125.4 9.1 122.8 7.8 120.2C5.9 116.3 4.8 111.1 5.1 104.7L5.2 101C5.3 98.3 6.1 95.4 7.4 92.4C8.7 89.4 10.4 86.5 12.6 83.6C18.1 76.6 25.1 71.2 33.6 67.7C42.1 64.2 52.1 62.2 63.6 62.2C71.4 62.2 78.8 63.5 86 66.1C93.2 68.7 99.6 72.3 105.5 76.9C106.8 77.9 107.8 78.9 108.5 79.9C109.2 80.9 109.6 82.5 109.8 84.6C109.8 86 109.7 87.3 109.4 88.5C109.1 89.7 108.5 90.7 107.7 91.7C106.7 93 105.7 93.9 104.5 94.4C103.3 94.9 101.8 95.6 99.8 95.6C97.2 95.7 94.9 94.9 93 93.6C92.9 93.6 92.7 93.5 92.6 93.3C84.4 86.4 74.9 83 64.1 83C56.2 83 49.4 84.2 43.8 86.4C38.2 88.7 33.7 91.9 30.3 95.9L30.3 95.8C28.4 98.2 27.4 100.2 27.3 101.8L27.3 103.5C27.3 107.2 27.4 109.7 27.9 110.8L27.9 110.5C29 112.7 31.5 115.1 35.2 117.7C37.9 119.4 41.7 120.9 46.4 121.9C51.1 122.9 56.7 123.5 63.1 123.5C72 123.5 79.9 124.4 86.7 125.9C93.5 127.4 99.1 129.8 103.5 132.8C106.5 135 109.1 137.2 111.4 139.6C113.7 142 115.6 144.3 117 146.8L116.9 146.8L116.8 147.7L116.8 147.7Z" />
		<path id="Layer" fill-rule="evenodd" class="shp2" d="M276.8 197.7C276.8 200.7 275.8 203.2 273.8 205.2C271.6 207.4 269.2 208.4 266.3 208.4C263.1 208.4 260.5 207.4 258.4 205.5C256.5 203.3 255.5 200.8 255.5 197.7L255.5 186.6C253.5 188.5 251.2 190.5 248.6 192.5C246 194.5 243.7 196.1 241.7 197.4C235.9 201 229.9 203.7 223.6 205.6C217.3 207.5 210.7 208.3 203.6 208.3C183.3 208.3 166.1 201.1 151.7 186.7C137.3 172.2 130.3 154.9 130.3 135C130.3 115.1 137.3 97.8 151.7 83.3C166.1 68.8 183.3 61.7 203.6 61.7C223.9 61.7 241.4 68.7 255.6 83.3C270 97.8 277 115.1 277 135L277 198L276.8 197.7ZM240.6 171.8C250.8 161.6 255.8 149.4 255.8 135.2C255.8 121 250.8 108.6 240.6 98.1C230.5 88.1 218.2 83 203.7 83C189.3 83 177 87.9 166.9 98.1C156.6 108.6 151.7 121.1 151.7 135C151.7 149.1 156.6 161.3 166.9 171.8C177.1 182 189.3 187 203.7 187C218.2 187.1 230.5 182.1 240.6 171.8Z" />
		<path id="Layer" class="shp2" d="M400.9 62.8C403.5 62.8 405.9 63.7 408.2 66C410.5 68.3 411.4 70.7 411.4 73.3L411.4 148.9C411.4 165.4 405.4 179.2 393.6 190.8C381.8 202.3 367.7 208.2 350.9 208.2C334.7 208.2 320.6 202.6 308.7 191.1C297.1 179.7 290.7 166 290.7 149.9L290.7 73.3C290.7 70.7 291.7 68.3 293.9 66C296.1 63.8 298.5 62.8 301.2 62.8C303.9 62.8 306.4 63.8 308.5 66C310.7 68.2 311.8 70.6 311.8 73.3L311.8 148.9C311.8 159.4 315.4 168.4 323.1 175.8C331.1 183.6 340.6 187.2 351.1 187.2C361.9 187.2 371.2 183.5 379.1 175.8C386.7 168.5 390.6 159.6 390.6 149.1L390.6 73.4C390.6 70.7 391.6 68.2 393.8 66.1C396 63.9 398.4 62.9 401.3 62.9L400.9 62.8Z" />
		<path id="Layer" fill-rule="evenodd" class="shp2" d="M555.6 188.4C541.2 202.9 523.8 210 503.4 210C483.1 210 465.9 203 451.4 188.4C436.9 173.9 429.6 156.6 429.6 136.2C429.6 115.8 436.9 98.6 451.4 84C465.9 69.4 483.2 62.2 503.4 62.2C517.5 62.2 530.3 65.8 541.9 72.8C544.6 74.4 547.1 76.1 549.4 78C551.7 79.9 553.9 81.7 555.9 83.8L555.9 14.8C555.9 12.1 557.1 9.5 559.2 7C561.4 5 563.8 4 566.7 4C569.7 4 572.3 5 574.5 7C576.5 9 577.5 11.6 577.5 14.6L577.5 135.9L577.4 136.2C577.4 156.5 570.1 173.8 555.6 188.4ZM503.4 188.4C517.9 188.4 530.3 183.2 540.5 173C550.7 162.8 555.7 150.4 555.7 135.9C555.7 121.2 550.5 109 540.5 98.7C530.4 88.5 518.2 83.3 503.4 83.3C488.9 83.3 476.5 88.5 466.3 98.7C456.1 108.9 450.9 121.3 450.9 135.8C450.9 150.3 456.1 162.7 466.3 172.9C476.8 183.2 489.1 188.3 503.4 188.3L503.4 188.4Z" />
		<path id="Layer" fill-rule="evenodd" class="shp2" d="M746.7 133.2C746.7 133.6 746.7 134.1 746.7 134.5C746.7 134.9 746.6 135.5 746.3 136.2L746.4 136.1C745 141.3 741.5 143.9 736.2 143.9L622.3 143.9C623.2 149.4 624.9 154.4 627.3 159.1C629.7 163.8 633.3 168 637.5 172.2C647.6 181.8 659.3 186.9 673.4 186.9C677.9 186.9 682 186.3 685.9 185.3C689.8 184.3 693.7 182.9 697.5 181L697.4 181C701 179.1 704.4 176.8 707.6 174.1C710.8 171.4 713.6 168.2 716.1 164.6C717.7 162.4 720.1 161 723.4 160.3L725 160.3C727 160.3 729 160.9 730.9 162C733.5 163.6 735.1 165.9 735.6 168.9C735.7 169.3 735.9 169.6 735.9 169.9C735.9 170.2 735.9 170.6 735.9 171C735.9 173.2 735.2 175.2 733.9 177C730.6 181.7 726.7 186.1 722.3 189.9C717.9 193.8 713 197.1 707.8 199.8C697 205.4 685.7 208.3 673.8 208.3C653.8 208.3 636.3 201.4 621.8 186.7C607.3 172 600.4 154.7 600.4 134.8L600.4 132.6C600.4 112.9 608.3 95.8 622.7 81.9C636.9 68 654.2 61.2 673.9 61.2C693.9 61.2 711 68 725.2 81.9C732.2 88.8 737.6 96.7 741.3 105.2C745 113.7 747.2 123 747.2 133.2L747.2 133.5L746.7 133.2ZM724.2 123C722.9 118 720.9 113.2 718.2 108.8C715.5 104.4 712.4 100.2 708.7 96.7C704 92.3 698.4 89.1 692.3 86.8C686.3 84.5 679.9 83.4 673.3 83.4C660.2 83.4 648.6 88 638.2 97.2L638.2 97C630.3 104.3 625.1 113.1 622.7 123.3L724 123.3L724.2 123Z" />
		<g id="Layer">
			<path id="Layer" class="shp3" d="M344.8 63.3C344.8 63.3 363.5 67 375.4 55.1C387.3 43.2 383.6 24.5 383.6 24.5C383.6 24.5 364.9 20.8 353 32.7C341.1 44.6 344.8 63.3 344.8 63.3Z" />
			<path id="Layer" class="shp3" d="M338.1 51.8C333.5 47.2 326.2 48.6 326.2 48.6C326.2 48.6 324.8 55.9 329.4 60.5C334 65.1 341.3 63.7 341.3 63.7C341.3 63.7 342.7 56.4 338.1 51.8Z" />
		</g>
	</g>
</svg>